<svg viewbox="0 0 100 100" height="700" width="100" style="background-color: red"
     xmlns="http://www.w3.org/2000/svg" xmlns:svg="http://www.w3.org/2000/svg">

  <g>
    <rect class="case" width="90" height="90" x="5" y="5" rx="20" ry="20"
          fill="white" stroke="black" stroke-width="10"/>
    <circle r="10" cx="25" cy="25" fill="black" class="dot1" transform="translate(25, 25)"/>
    <circle r="10" cx="25" cy="50" fill="black" class="dot2" transform="translate(25, 0)"/>
    <circle r="10" cx="25" cy="75" fill="black" class="dot3" transform="translate(25, -25)"/>
    <circle r="10" cx="75" cy="25" fill="black" class="dot4" transform="translate(-25, 25)"/>
    <circle r="10" cx="75" cy="50" fill="black" class="dot5" transform="translate(-25, 0)"/>
    <circle r="10" cx="75" cy="75" fill="black" class="dot6" transform="translate(-25, -25)"/>
  </g>

  <g transform="translate(0, 120)">
    <rect class="case" width="90" height="90" x="5" y="5" rx="20" ry="20"
          fill="white" stroke="black" stroke-width="10"/>
    <circle r="10" cx="25" cy="25" fill="black" class="dot1" transform="translate(0, 50)"/>
    <circle r="10" cx="25" cy="50" fill="black" class="dot2" transform="translate(0, 25)"/>
    <circle r="10" cx="25" cy="75" fill="black" class="dot3"/>
    <circle r="10" cx="75" cy="25" fill="black" class="dot4"/>
    <circle r="10" cx="75" cy="50" fill="black" class="dot5" transform="translate(0, -25)"/>
    <circle r="10" cx="75" cy="75" fill="black" class="dot6" transform="translate(0, -50)"/>
  </g>

  <g transform="translate(0, 240)">
    <rect class="case" width="90" height="90" x="5" y="5" rx="20" ry="20"
          fill="white" stroke="black" stroke-width="10"/>
    <circle r="10" cx="25" cy="25" fill="black" class="dot1" transform="translate(25, 25)"/>
    <circle r="10" cx="25" cy="50" fill="black" class="dot2" transform="translate(25, 0)"/>
    <circle r="10" cx="25" cy="75" fill="black" class="dot3"/>
    <circle r="10" cx="75" cy="25" fill="black" class="dot4"/>
    <circle r="10" cx="75" cy="50" fill="black" class="dot5" transform="translate(-25, 0)"/>
    <circle r="10" cx="75" cy="75" fill="black" class="dot6" transform="translate(-25, -25)"/>
  </g>

  <g transform="translate(0, 360)">
    <rect class="case" width="90" height="90" x="5" y="5" rx="20" ry="20"
          fill="white" stroke="black" stroke-width="10"/>
    <circle r="10" cx="25" cy="25" fill="black" class="dot1"/>
    <circle r="10" cx="25" cy="50" fill="black" class="dot2" transform="translate(0, 25)"/>
    <circle r="10" cx="25" cy="75" fill="black" class="dot3"/>
    <circle r="10" cx="75" cy="25" fill="black" class="dot4"/>
    <circle r="10" cx="75" cy="50" fill="black" class="dot5" transform="translate(0, -25)"/>
    <circle r="10" cx="75" cy="75" fill="black" class="dot6"/>
  </g>

  <g transform="translate(0, 480)">
    <rect class="case" width="90" height="90" x="5" y="5" rx="20" ry="20"
          fill="white" stroke="black" stroke-width="10"/>
    <circle r="10" cx="25" cy="25" fill="black" class="dot1"/>
    <circle r="10" cx="25" cy="50" fill="black" class="dot2" transform="translate(25, 0)"/>
    <circle r="10" cx="25" cy="75" fill="black" class="dot3"/>
    <circle r="10" cx="75" cy="25" fill="black" class="dot4"/>
    <circle r="10" cx="75" cy="50" fill="black" class="dot5" transform="translate(-25, 0)"/>
    <circle r="10" cx="75" cy="75" fill="black" class="dot6"/>
  </g>

  <g transform="translate(0, 600)">
    <rect class="case" width="90" height="90" x="5" y="5" rx="20" ry="20"
          fill="white" stroke="black" stroke-width="10"/>
    <circle r="10" cx="25" cy="25" fill="black" class="dot1"/>
    <circle r="10" cx="25" cy="50" fill="black" class="dot2"/>
    <circle r="10" cx="25" cy="75" fill="black" class="dot3"/>
    <circle r="10" cx="75" cy="25" fill="black" class="dot4"/>
    <circle r="10" cx="75" cy="50" fill="black" class="dot5"/>
    <circle r="10" cx="75" cy="75" fill="black" class="dot6"/>
  </g>
</svg>
